<?xml version="1.0" encoding="iso-8859-1"?>
<!-- Generator: Adobe Illustrator 19.0.0, SVG Export Plug-In . SVG Version: 6.00 Build 0)  -->
<svg version="1.1" id="Capa_1" xmlns="http://www.w3.org/2000/svg" xmlns:xlink="http://www.w3.org/1999/xlink" x="0px" y="0px"
	 viewBox="0 0 512 512" style="enable-background:new 0 0 512 512;" xml:space="preserve">
<polygon style="fill:#FF3A00;" points="512,0 384.423,0 364.407,256 384.423,512 512,512 "/>
<rect x="256.85" style="fill:#FF7614;" width="127.58" height="512"/>
<g>
	<rect x="433.21" y="111.63" style="fill:#FFCF17;" width="30" height="31.895"/>
	<rect x="433.21" y="175.42" style="fill:#FFCF17;" width="30" height="31.895"/>
</g>
<rect x="305.63" y="239.21" style="fill:#FFE696;" width="30" height="31.895"/>
<rect x="433.21" y="239.21" style="fill:#FFCF17;" width="30" height="31.895"/>
<rect x="305.63" y="303" style="fill:#FFE696;" width="30" height="31.894"/>
<rect x="433.21" y="303" style="fill:#FFCF17;" width="30" height="31.894"/>
<rect x="305.63" y="366.79" style="fill:#FFE696;" width="30" height="31.894"/>
<rect x="433.21" y="366.79" style="fill:#FFCF17;" width="30" height="31.894"/>
<rect x="305.63" y="430.57" style="fill:#FFE696;" width="30" height="31.894"/>
<g>
	<rect x="433.21" y="430.57" style="fill:#FFCF17;" width="30" height="31.894"/>
	<polygon style="fill:#FFCF17;" points="399.423,175.418 384.423,175.418 374.415,191.366 384.423,207.313 399.423,207.313 	"/>
	<polygon style="fill:#FFCF17;" points="399.423,239.207 384.423,239.207 374.415,255.155 384.423,271.102 399.423,271.102 	"/>
	<polygon style="fill:#FFCF17;" points="399.423,302.996 384.423,302.996 374.415,318.943 384.423,334.891 399.423,334.891 	"/>
	<polygon style="fill:#FFCF17;" points="399.423,366.785 384.423,366.785 374.415,382.732 384.423,398.679 399.423,398.679 	"/>
	<polygon style="fill:#FFCF17;" points="399.423,430.574 384.423,430.574 374.415,446.521 384.423,462.468 399.423,462.468 	"/>
</g>
<g>
	<rect x="369.42" y="175.42" style="fill:#FFE696;" width="15" height="31.895"/>
	<rect x="369.42" y="239.21" style="fill:#FFE696;" width="15" height="31.895"/>
	<rect x="369.42" y="303" style="fill:#FFE696;" width="15" height="31.894"/>
	<rect x="369.42" y="366.79" style="fill:#FFE696;" width="15" height="31.894"/>
	<rect x="369.42" y="430.57" style="fill:#FFE696;" width="15" height="31.894"/>
</g>
<polygon style="fill:#BDC4CB;" points="156.422,0 124.528,0 104.512,265 124.528,512 156.422,512 "/>
<g>
	<rect x="92.63" style="fill:#DCE4EC;" width="31.894" height="512"/>
	<polygon style="fill:#DCE4EC;" points="310.003,63.789 124.528,63.789 104.512,95.683 124.528,127.577 341.897,127.577 	"/>
</g>
<rect y="63.789" style="fill:#F7F7F8;" width="124.53" height="63.789"/>
<g>
</g>
<g>
</g>
<g>
</g>
<g>
</g>
<g>
</g>
<g>
</g>
<g>
</g>
<g>
</g>
<g>
</g>
<g>
</g>
<g>
</g>
<g>
</g>
<g>
</g>
<g>
</g>
<g>
</g>
</svg>
